<svg width="155" height="34" viewBox="0 0 155 34" fill="none" xmlns="http://www.w3.org/2000/svg">
<g clip-path="url(#clip0_8384_28151)">
<path d="M35.1602 33.2969V32.373C37.9695 32.1155 38.6433 31.6719 38.6433 29.3828V12.0323C38.6433 9.96595 37.8575 9.44883 35.1602 9.26276V8.33887H48.2674V9.26276C45.4954 9.3731 44.7097 9.96379 44.7097 12.0323V29.3849C44.7097 31.7845 45.4208 32.1912 48.2674 32.3751V33.299H35.1602V33.2969Z" fill="#0053D9"/>
<path d="M74.7088 28.6081C71.2257 32.8533 68.2298 33.9978 63.9237 33.9978C55.871 33.9978 50.8164 28.5713 50.8164 21.3706C50.8164 13.5446 56.1717 7.78491 63.8117 7.78491C65.6092 7.78491 67.4814 8.19168 69.6542 9.07663C70.5146 9.44662 71.0018 9.59375 71.3771 9.59375C72.0882 9.59375 72.4636 9.22376 73.0254 7.89526H74.0372V16.5716H73.1C72.3889 14.5789 71.4891 13.3607 70.5914 12.3265C68.8685 10.2948 66.8471 9.00306 64.3363 9.00306C60.4032 9.00306 57.4447 13.1746 57.4447 20.5593C57.4447 24.2873 57.8946 26.9832 59.466 29.4195C60.5525 31.118 62.7626 32.2258 64.9706 32.2258C66.6188 32.2258 68.1903 31.7822 69.6893 30.9709C70.8877 30.3066 71.9368 29.3827 73.5851 27.6842L74.7088 28.6081Z" fill="#0053D9"/>
<path d="M98.5255 33.2969H76.6172V32.373C79.3892 32.0787 79.9137 31.4859 79.9137 29.5667V11.8851C79.9137 10.0027 79.2026 9.41205 76.6172 9.26276V8.33887H98.2248V15.7603H97.2877C96.4273 10.8141 94.5156 9.5938 88.412 9.5938C86.4652 9.5938 85.9779 10.1845 85.9779 11.5865V19.8929C89.9483 19.8561 91.5944 18.6747 92.0443 14.3928H93.0188V26.8707H92.0443C91.669 22.4763 90.0602 21.1478 85.9779 21.1478V30.0816C85.9779 31.6698 86.6517 32.148 89.0858 32.148C92.007 32.148 94.1425 31.5941 95.9028 30.1552C97.1757 29.121 97.8495 28.0132 98.9733 25.6137H100.022L98.5233 33.2925L98.5255 33.2969Z" fill="#0053D9"/>
<path d="M120.133 33.2968L112.381 21.7406H111.332V28.9759C111.332 31.6719 111.707 32.0029 114.626 32.3729V33.2968H101.969V32.3729C104.89 32.0397 105.263 31.7822 105.263 28.8656V12.9561C105.263 10.0762 104.739 9.44874 101.969 9.26483V8.34094H113.502C120.804 8.34094 124.588 10.4462 124.588 14.6913C124.588 16.353 123.989 18.0515 122.903 19.0468C121.853 19.9707 120.881 20.5614 118.708 21.1521L126.162 31.5637C126.5 32.044 127.136 32.3751 127.81 32.3751V33.2989H120.133V33.2968ZM111.332 20.5592C116.237 20.5224 118.184 19.5618 118.184 15.0592C118.184 11.1451 116.799 9.59587 113.316 9.59587C111.856 9.59587 111.332 10.0394 111.332 11.2576V20.5614V20.5592Z" fill="#0053D9"/>
<path d="M141.704 34C133.952 34 128.484 28.6102 128.484 20.9681C128.484 13.326 134.14 7.78918 141.93 7.78918C149.719 7.78918 155 13.2892 155 20.9314C155 28.5735 149.458 34 141.706 34H141.704ZM141.592 9.00517C137.472 9.00517 135.113 13.3606 135.113 21.1153C135.113 28.8699 137.509 32.7818 141.778 32.7818C146.047 32.7818 148.369 28.7941 148.369 21.1888C148.369 13.5835 145.972 9.00517 141.592 9.00517Z" fill="#0053D9"/>
<path d="M2.35781 23.4607C2.23052 23.372 2.09883 23.292 1.97592 23.2141C1.72791 23.0626 1.48648 22.9393 1.2714 22.8419C1.21653 22.8181 1.16605 22.7943 1.11557 22.7727C1.06728 22.7511 1.02119 22.7316 0.977294 22.7121C0.889503 22.6753 0.812685 22.645 0.749037 22.6212C0.621739 22.5736 0.544922 22.552 0.544922 22.552C0.544922 22.552 0.56248 22.6364 0.604181 22.7814C0.641492 22.9263 0.720505 23.1254 0.823659 23.3569C0.876334 23.4737 0.935593 23.5949 1.00363 23.7225C1.07825 23.848 1.15946 23.9757 1.24945 24.1055C1.34163 24.2332 1.4382 24.363 1.55013 24.4863C1.66426 24.6075 1.78717 24.7265 1.91886 24.8368C1.9847 24.8909 2.05054 24.9429 2.11858 24.9926C2.1515 25.0164 2.18443 25.0402 2.21954 25.064C2.25466 25.0857 2.28978 25.1073 2.3227 25.1268C2.46097 25.209 2.59924 25.2782 2.73532 25.3388C2.8692 25.3994 3.00088 25.447 3.12379 25.4881C3.2489 25.5271 3.3718 25.5573 3.48374 25.579C3.70761 25.6244 3.89636 25.6461 4.02804 25.6525C4.15973 25.6612 4.23655 25.659 4.23655 25.659C4.23655 25.659 4.20363 25.5898 4.13998 25.4751C4.10706 25.4167 4.06535 25.3496 4.01707 25.2717C3.96878 25.1939 3.90733 25.1116 3.84807 25.0164C3.72736 24.8282 3.56714 24.6205 3.38058 24.4041C3.2906 24.2938 3.19183 24.1856 3.08209 24.0752C2.97455 23.967 2.85383 23.861 2.73312 23.7528C2.61021 23.6468 2.48511 23.5495 2.35562 23.4607H2.35781Z" fill="#0053D9"/>
<path d="M29.1064 23.6879L28.4545 24.3586C26.5473 26.3232 25.4499 27.2558 24.2647 27.9135C22.6691 28.7768 21.0296 29.2161 19.3901 29.2161C17.1997 29.2161 15.0268 28.1212 13.9821 26.4855C12.4414 24.099 11.84 21.4225 11.84 16.9437C11.84 13.1118 12.5621 9.93122 13.9295 7.74808C15.1366 5.81808 16.7761 4.79899 18.6658 4.79899C20.9769 4.79899 23.0488 5.91761 25.0021 8.21976L25.0109 8.22841C25.9437 9.29943 26.9116 10.589 27.6776 12.7397L27.9146 13.4039H30.702V1.55131H27.8707L27.6117 2.16363C27.513 2.39947 27.2079 3.11781 26.9445 3.38827C26.8809 3.45318 26.8523 3.48347 26.6702 3.48347C26.3322 3.48347 25.6189 3.1957 25.1141 2.97933L25.0965 2.97284C22.5133 1.91913 20.279 1.42798 18.0688 1.42798C15.8587 1.42798 13.6617 1.84557 11.6996 2.66993C11.2386 2.8625 10.7931 3.07886 10.3585 3.31254C10.7602 3.14161 11.3111 2.99881 11.8949 3.04208C12.0463 3.04857 12.2 3.08103 12.3404 3.11348C12.4831 3.1481 12.617 3.18921 12.7443 3.23681C12.8079 3.26061 12.8694 3.28441 12.9286 3.31038C12.9879 3.3385 13.045 3.36663 13.0998 3.39692C13.2096 3.45534 13.3105 3.51376 13.4005 3.57218C13.5805 3.68902 13.7209 3.80153 13.8153 3.88159C13.8636 3.9227 13.8987 3.95732 13.9251 3.98112C13.9492 4.00492 13.9624 4.02006 13.9624 4.02006C13.9624 4.02006 13.9009 4.04386 13.7934 4.08497C13.6858 4.12392 13.5322 4.17585 13.3412 4.21696C13.2447 4.23643 13.1459 4.26672 13.034 4.28619C12.9242 4.30783 12.8057 4.32514 12.6806 4.33596C12.6499 4.33812 12.617 4.34029 12.5862 4.34461C12.5555 4.34678 12.5226 4.3511 12.4919 4.35543C12.4282 4.36192 12.3624 4.36625 12.2943 4.36625C12.1583 4.37058 12.0178 4.36625 11.8707 4.35327C11.581 4.33596 11.3001 4.28619 11.0345 4.21696C10.7734 4.15421 10.5319 4.08065 10.3234 4.00275C10.1171 3.92919 9.94153 3.8513 9.82301 3.79937C9.73302 3.76042 9.67376 3.73013 9.64962 3.71715C8.8156 4.2321 8.03646 4.82711 7.31876 5.49785C7.33632 5.48487 7.35607 5.46972 7.37363 5.45674C7.46581 5.39183 7.56458 5.32476 7.67432 5.25768C7.72919 5.22523 7.78625 5.19061 7.84332 5.15816C7.87185 5.14301 7.90257 5.1257 7.9333 5.11055C7.96403 5.09541 7.99695 5.08243 8.02768 5.06728C8.15717 5.01103 8.29105 4.9591 8.43371 4.91366C8.50394 4.89202 8.57637 4.87039 8.6488 4.85308C8.72123 4.83577 8.80024 4.82279 8.87706 4.81197C9.03069 4.79033 9.18213 4.78168 9.32699 4.78168C9.39942 4.78168 9.47184 4.78384 9.53988 4.78817C9.61012 4.79466 9.68035 4.80331 9.74839 4.81413C10.0183 4.85524 10.2598 4.92448 10.4617 4.99588C10.6614 5.06944 10.8282 5.15383 10.938 5.21225C11.0499 5.27283 11.1113 5.31394 11.1113 5.31394C11.1113 5.31394 11.0587 5.35289 10.9599 5.41347C10.8611 5.46973 10.7229 5.55627 10.5495 5.64498C10.4617 5.68826 10.3651 5.73153 10.262 5.7748C10.1588 5.82024 10.0491 5.86568 9.93275 5.90679C9.81423 5.9479 9.68913 5.98468 9.55525 6.01497C9.42575 6.05175 9.28968 6.07988 9.14482 6.10152C9.00216 6.12316 8.85292 6.13181 8.71245 6.14263C8.57198 6.15128 8.43371 6.15561 8.29764 6.15128C8.16156 6.14912 8.02987 6.14046 7.90477 6.12965C7.77967 6.11883 7.66334 6.11017 7.5536 6.09503C7.33632 6.06906 7.15196 6.03661 7.02247 6.00848C6.93028 5.98901 6.86664 5.97386 6.83591 5.96521C6.78543 6.01713 6.73275 6.06906 6.68447 6.12099C6.07212 6.76577 5.51904 7.4668 5.02741 8.21543C5.0296 8.2111 5.03399 8.20894 5.03619 8.20461C5.10861 8.12023 5.18982 8.03152 5.27981 7.94064C5.37418 7.8541 5.47734 7.76755 5.58927 7.68317C5.70121 7.59878 5.81753 7.5144 5.94702 7.44083C6.07871 7.36943 6.21698 7.30452 6.35964 7.24827C6.43207 7.22014 6.5045 7.19634 6.57473 7.1747C6.60985 7.16388 6.64716 7.15306 6.68227 7.14441C6.71959 7.13576 6.7547 7.1271 6.79201 7.12061C6.93687 7.09248 7.07734 7.07301 7.21341 7.06219C7.34949 7.05137 7.47898 7.04921 7.59969 7.05137C7.7226 7.0557 7.84112 7.06868 7.94866 7.08383C8.16375 7.11412 8.33934 7.15523 8.46005 7.18985C8.58296 7.22447 8.65099 7.25043 8.65099 7.25043C8.65099 7.25043 8.60929 7.30236 8.52809 7.38241C8.48639 7.42352 8.4381 7.47113 8.37665 7.52305C8.31739 7.57715 8.24496 7.62907 8.17253 7.69398C8.02548 7.82164 7.83893 7.95146 7.62603 8.08345C7.52288 8.15052 7.40875 8.21543 7.28803 8.27601C7.16732 8.3366 7.03344 8.39069 6.90175 8.44694C6.76787 8.50104 6.6296 8.54647 6.49352 8.58325C6.35525 8.62004 6.21698 8.65033 6.08749 8.68062C5.82631 8.73688 5.57171 8.76933 5.35004 8.7888C5.23811 8.79746 5.13715 8.80395 5.04716 8.8126C4.95717 8.8191 4.87816 8.82126 4.81232 8.82342C4.73989 8.82342 4.68283 8.82342 4.64771 8.82342C4.19558 9.58504 3.80711 10.3899 3.48009 11.2316C3.58543 11.052 3.71273 10.8551 3.87076 10.6604C4.05292 10.4483 4.2746 10.2406 4.527 10.0675C4.79037 9.89877 5.06252 9.77977 5.31712 9.69755C5.58049 9.61966 5.8307 9.58071 6.04359 9.55907C6.25649 9.5396 6.43426 9.5396 6.56376 9.54825C6.69105 9.55691 6.76568 9.56773 6.76568 9.56773C6.76568 9.56773 6.73275 9.62615 6.66911 9.72135C6.60985 9.81871 6.51986 9.95503 6.39915 10.1043C6.27185 10.2536 6.13358 10.431 5.95361 10.602C5.90752 10.6452 5.86143 10.6885 5.81095 10.7318C5.76047 10.7751 5.71437 10.8205 5.6617 10.8638C5.55855 10.9503 5.44661 11.0347 5.3237 11.1148C5.26225 11.1559 5.1986 11.1926 5.13715 11.2294C5.07789 11.2662 5.01643 11.303 4.95498 11.3376C4.83207 11.4047 4.70697 11.4674 4.58187 11.5215C4.32947 11.6297 4.09682 11.7206 3.88831 11.792C3.67981 11.8612 3.49764 11.911 3.36815 11.9413C3.30011 11.9586 3.24524 11.9694 3.21013 11.9759C2.9248 12.8284 2.70313 13.7133 2.5473 14.6242C2.57364 14.5312 2.60217 14.4317 2.64168 14.33C2.68996 14.211 2.74483 14.0876 2.80848 13.9643C2.87213 13.841 2.94236 13.7155 3.02576 13.5922C3.11356 13.471 3.21013 13.352 3.31767 13.2416C3.42522 13.1291 3.53276 13.0274 3.64908 12.9387C3.7676 12.85 3.88831 12.7743 4.00683 12.7051C4.24606 12.5709 4.46774 12.4714 4.68063 12.4086C4.88914 12.3437 5.06472 12.3069 5.18982 12.2853C5.31492 12.2637 5.38955 12.2572 5.38955 12.2572C5.38955 12.2572 5.37199 12.3221 5.33468 12.4281C5.31492 12.4822 5.29078 12.5449 5.25786 12.6185C5.2425 12.6553 5.22494 12.6921 5.20518 12.7332C5.18763 12.7743 5.17007 12.8154 5.15032 12.8608C5.11081 12.9496 5.06252 13.0426 5.00765 13.14C4.95279 13.2373 4.88694 13.339 4.82329 13.445C4.75745 13.5511 4.68283 13.6571 4.59942 13.7631C4.55772 13.8172 4.51383 13.8691 4.46554 13.9232C4.41726 13.9773 4.37336 14.0314 4.32508 14.0833C4.22631 14.1893 4.12316 14.2889 4.01561 14.3819C3.90807 14.4749 3.79394 14.5615 3.69078 14.6437C3.47789 14.8082 3.265 14.9466 3.07186 15.0591C2.97748 15.1154 2.8853 15.1652 2.80629 15.2084C2.72727 15.2517 2.65704 15.2885 2.59998 15.3188C2.51877 15.3599 2.46171 15.3859 2.43317 15.3988C2.33002 16.2037 2.27734 17.0259 2.27734 17.8633C2.27734 17.9282 2.27734 17.9952 2.27734 18.0602C2.28393 17.9823 2.29271 17.9044 2.30368 17.82C2.32124 17.6945 2.34099 17.5625 2.3805 17.4262C2.41781 17.2921 2.4639 17.1536 2.51877 17.0173C2.5473 16.948 2.57583 16.881 2.60876 16.8117C2.63948 16.7446 2.68118 16.6776 2.72069 16.6105C2.8019 16.4785 2.89188 16.3552 2.98406 16.2427C3.07844 16.1302 3.17062 16.0285 3.27597 15.9376C3.48228 15.7537 3.68859 15.6109 3.87076 15.5005C3.96294 15.4464 4.04853 15.3988 4.12755 15.3599C4.20875 15.3209 4.27899 15.2906 4.33825 15.2668C4.45676 15.2192 4.52919 15.1976 4.52919 15.1976C4.52919 15.1976 4.5248 15.2647 4.50724 15.3772C4.48969 15.4897 4.47432 15.652 4.42823 15.8402C4.40628 15.9354 4.37775 16.0371 4.34483 16.1453C4.3163 16.2535 4.28118 16.366 4.23729 16.4828C4.19558 16.5997 4.14072 16.7208 4.08146 16.842C4.02659 16.9653 3.96294 17.0887 3.88831 17.2142C3.81369 17.3397 3.7281 17.4587 3.64469 17.5733C3.56349 17.688 3.47789 17.7962 3.3901 17.9C3.21671 18.1056 3.02796 18.2873 2.87432 18.4388C2.7163 18.5903 2.57364 18.7114 2.47268 18.7958C2.36952 18.878 2.30807 18.9235 2.30807 18.9235C2.30807 18.9235 2.30588 18.9105 2.30149 18.8867C2.34977 19.7435 2.45951 20.5808 2.62851 21.3944C2.61534 21.2516 2.61315 21.1001 2.61534 20.9422C2.61534 20.8729 2.61973 20.8015 2.62631 20.7301C2.6307 20.6587 2.64387 20.5852 2.65704 20.5116C2.68338 20.3645 2.7185 20.2173 2.76459 20.0702C2.78873 19.9966 2.81287 19.9252 2.8414 19.856C2.87213 19.7868 2.90505 19.7197 2.94017 19.6548C3.00821 19.525 3.08283 19.4038 3.15965 19.2934C3.30889 19.0706 3.48667 18.8867 3.64469 18.7395C3.80272 18.5924 3.94538 18.4842 4.04853 18.4107C4.15169 18.3371 4.21534 18.3025 4.21534 18.3025C4.21534 18.3025 4.27021 18.5621 4.25704 18.9494C4.26143 19.142 4.25265 19.3692 4.21534 19.6158C4.18681 19.8603 4.13413 20.1265 4.03756 20.4056C3.95416 20.6804 3.83345 20.9422 3.70395 21.1823C3.58324 21.4203 3.44936 21.6367 3.32645 21.8206C3.20354 22.0045 3.08722 22.156 3.0104 22.2577C2.92919 22.3615 2.87871 22.4178 2.87871 22.4178C2.87871 22.4178 2.87871 22.4178 2.87871 22.4135C3.02138 22.9263 3.19037 23.4304 3.38351 23.9216C3.49325 24.1985 3.60958 24.469 3.73468 24.7351C3.68639 24.5945 3.6425 24.443 3.61177 24.2807C3.58763 24.1422 3.57007 23.9994 3.5591 23.8523C3.55032 23.7052 3.54593 23.5559 3.56568 23.4001C3.58324 23.2443 3.60958 23.0972 3.64469 22.9566C3.67981 22.8159 3.72151 22.6839 3.77638 22.5563C3.88173 22.3031 4.00683 22.0868 4.12535 21.9093C4.15608 21.8639 4.18461 21.8228 4.21314 21.7838C4.24387 21.7449 4.2724 21.7059 4.30093 21.6735C4.358 21.6043 4.40848 21.5458 4.45237 21.4982C4.53797 21.403 4.59284 21.3533 4.59284 21.3533C4.59284 21.3533 4.61918 21.4139 4.6521 21.522C4.68283 21.6324 4.7377 21.7838 4.7794 21.9721C4.80135 22.0673 4.8211 22.1711 4.83427 22.2815C4.85621 22.3918 4.87158 22.5065 4.88475 22.632C4.89792 22.7553 4.90011 22.8873 4.90011 23.0215C4.9045 23.1556 4.90011 23.2962 4.88475 23.4412C4.87816 23.5126 4.86938 23.5862 4.85621 23.6576C4.84524 23.729 4.83207 23.8004 4.8211 23.8696C4.79696 24.0081 4.76623 24.1422 4.73111 24.2742C4.696 24.4041 4.65649 24.5317 4.61698 24.6507C4.57748 24.7697 4.54017 24.8801 4.50066 24.9818C4.42384 25.1873 4.34702 25.3582 4.28996 25.4772C4.24387 25.5724 4.21095 25.6352 4.19997 25.6547C4.84524 26.8209 5.64414 27.8789 6.5857 28.8158C7.99695 30.22 9.69352 31.3105 11.6271 32.057C13.6178 32.8272 15.8257 33.2189 18.1873 33.2189C21.001 33.2189 23.1344 32.8013 25.1075 31.8666C27.2364 30.8561 29.1832 29.2226 31.2353 26.7213L31.8608 25.9597L29.0954 23.6879H29.1064Z" fill="#0053D9"/>
<path d="M12.4395 2.37783C12.4395 2.37783 12.5163 2.38216 12.6502 2.37783C12.716 2.37783 12.7972 2.37134 12.8872 2.36269C12.9794 2.3562 13.0825 2.35187 13.1945 2.34105C13.4183 2.32158 13.6795 2.27398 13.9582 2.22205C14.0987 2.19392 14.2436 2.15714 14.3906 2.1117C14.4279 2.10088 14.4652 2.0879 14.5025 2.07708C14.5399 2.06626 14.5772 2.05328 14.6145 2.04246C14.6891 2.01866 14.7659 1.9927 14.8405 1.96241C14.992 1.90399 15.139 1.83691 15.2795 1.76551C15.42 1.69411 15.5517 1.62704 15.679 1.55347C15.9314 1.40851 16.1574 1.24839 16.3462 1.10992C16.5349 0.973607 16.6864 0.850277 16.7895 0.759403C16.8927 0.668528 16.9497 0.612273 16.9497 0.612273C16.9497 0.612273 16.8663 0.588472 16.7193 0.556017C16.6447 0.540871 16.5569 0.523562 16.4537 0.506253C16.3506 0.491107 16.2342 0.482452 16.1069 0.473797C15.9796 0.465143 15.8414 0.460815 15.6965 0.460815C15.6241 0.460815 15.5495 0.460815 15.4726 0.467306C15.3958 0.473797 15.319 0.482452 15.24 0.491107C14.9261 0.532217 14.5947 0.597127 14.2743 0.733439C14.1141 0.798349 13.9648 0.871914 13.8266 0.949806C13.7563 0.988752 13.6905 1.02986 13.6268 1.0753C13.5632 1.11857 13.5017 1.16401 13.4425 1.20945C13.2076 1.3912 13.0189 1.57944 12.8718 1.75037C12.7226 1.92779 12.6172 2.08357 12.5448 2.19608C12.4746 2.30859 12.4395 2.37783 12.4395 2.37783Z" fill="#0053D9"/>
<path d="M1.07728 13.1314C1.08606 13.2158 1.10581 13.3002 1.12337 13.3845C1.16068 13.5533 1.20897 13.7113 1.26384 13.8606C1.3209 14.0098 1.37797 14.1483 1.45259 14.2803C1.59525 14.5399 1.74889 14.7585 1.89374 14.9316C1.96617 15.0181 2.03421 15.096 2.09786 15.1609C2.1637 15.2258 2.22296 15.2821 2.27344 15.3254C2.3744 15.4141 2.43585 15.4595 2.43585 15.4595C2.43585 15.4595 2.45122 15.3838 2.46878 15.254C2.48633 15.122 2.51706 14.9381 2.53242 14.713C2.53901 14.6005 2.5434 14.4794 2.54559 14.3495C2.55218 14.2219 2.55218 14.0856 2.54559 13.9428C2.5412 13.8 2.52584 13.6528 2.50828 13.4992C2.49511 13.3478 2.47316 13.192 2.44024 13.0319C2.40732 12.8739 2.36343 12.716 2.31953 12.5688C2.27783 12.4217 2.22954 12.2767 2.17906 12.1404C2.0781 11.8678 1.9552 11.6168 1.85424 11.4113C1.75108 11.2036 1.65232 11.0348 1.58208 10.918C1.50965 10.8011 1.46356 10.7362 1.46356 10.7362C1.46356 10.7362 1.42625 10.8141 1.36919 10.9547C1.34066 11.024 1.30993 11.1105 1.27481 11.2079C1.25725 11.2577 1.2397 11.3096 1.22433 11.3658C1.20897 11.4221 1.19361 11.4805 1.18044 11.5433C1.15191 11.6666 1.12337 11.8007 1.09923 11.9435C1.07509 12.0863 1.05314 12.2356 1.04875 12.3957C1.04217 12.5537 1.04436 12.7181 1.05314 12.8826C1.05753 12.9648 1.06631 13.0492 1.07509 13.1314H1.07728Z" fill="#0053D9"/>
<path d="M2.40744 10.1953C2.42939 10.3554 2.46231 10.5047 2.49962 10.6475C2.56985 10.9287 2.68179 11.1776 2.78494 11.3809C2.89029 11.5843 2.99125 11.7423 3.06807 11.8483C3.14489 11.9565 3.19317 12.0127 3.19317 12.0127C3.19317 12.0127 3.32925 11.738 3.44996 11.3031C3.52019 11.0889 3.58823 10.8379 3.63432 10.5544C3.69139 10.2753 3.73089 9.97023 3.73309 9.64135C3.74626 9.31896 3.72211 9.00523 3.67822 8.71314C3.6431 8.42537 3.58823 8.1614 3.52897 7.93421C3.47191 7.70703 3.41045 7.51879 3.36875 7.38897C3.32486 7.25915 3.29633 7.18774 3.29633 7.18774C3.29633 7.18774 3.23926 7.25482 3.15366 7.37815C3.07246 7.50364 2.96052 7.68755 2.8442 7.91258C2.72349 8.13543 2.61814 8.41455 2.52815 8.71746C2.5062 8.79319 2.48426 8.87108 2.4667 8.94898C2.44694 9.02687 2.43597 9.11125 2.4228 9.19347C2.39866 9.35791 2.3833 9.52884 2.37891 9.69977C2.37891 9.78632 2.37891 9.86854 2.3833 9.95292C2.38988 10.0373 2.39866 10.1174 2.41183 10.1974L2.40744 10.1953Z" fill="#0053D9"/>
<path d="M0.256022 16.2622C0.284554 16.418 0.317476 16.5759 0.365761 16.7339C0.418436 16.894 0.47989 17.0519 0.552317 17.2077C0.62694 17.3635 0.703757 17.5063 0.793744 17.6405C0.885925 17.7724 0.982495 17.8958 1.07907 18.0061C1.2744 18.2268 1.46535 18.4042 1.6541 18.5405C1.83846 18.6769 2.00087 18.7742 2.1172 18.837C2.23352 18.8997 2.30375 18.93 2.30375 18.93C2.30375 18.93 2.30375 18.8521 2.29278 18.7223C2.2862 18.6574 2.27961 18.5773 2.26644 18.4865C2.25986 18.441 2.25327 18.3934 2.2445 18.3415C2.23791 18.2917 2.23133 18.2376 2.22255 18.1814C2.20718 18.071 2.18524 17.9499 2.1567 17.8244C2.13037 17.6989 2.09086 17.5669 2.05794 17.4284C2.02282 17.2921 1.97893 17.1493 1.92625 17.0043C1.89991 16.9329 1.87138 16.8594 1.84066 16.7858C1.80993 16.7122 1.7814 16.6387 1.74847 16.5651C1.68263 16.418 1.60801 16.2773 1.53119 16.141C1.45437 16.0069 1.36658 15.8771 1.28976 15.7559C1.12955 15.5136 0.962742 15.2994 0.811302 15.1219C0.734484 15.0332 0.662057 14.9532 0.596213 14.8818C0.532564 14.8125 0.4755 14.7519 0.427215 14.7043C0.330644 14.607 0.271385 14.5551 0.271385 14.5551C0.271385 14.5551 0.251632 14.6394 0.227489 14.7866C0.203347 14.9337 0.190178 15.1479 0.183594 15.4011C0.183594 15.5287 0.183594 15.665 0.192373 15.8078C0.205542 15.9528 0.225295 16.1042 0.253827 16.2579L0.256022 16.2622Z" fill="#0053D9"/>
<path d="M0.340191 20.2802C0.465294 20.5701 0.627708 20.8687 0.831823 21.1413C1.04691 21.4118 1.28395 21.6346 1.5166 21.8099C1.75802 21.983 1.99286 22.1128 2.19917 22.208C2.40548 22.3032 2.58107 22.3659 2.71056 22.4006C2.84005 22.4373 2.91467 22.4503 2.91467 22.4503C2.91467 22.4503 2.89711 22.3768 2.85541 22.2513C2.8203 22.1236 2.76323 21.944 2.67983 21.7363C2.58984 21.5286 2.49766 21.2863 2.36159 21.0353C2.32867 20.9725 2.29135 20.9098 2.25404 20.8449C2.21454 20.78 2.18161 20.7151 2.13991 20.6501C2.0609 20.5203 1.97311 20.3883 1.87215 20.2585C1.82387 20.1936 1.77119 20.1309 1.72071 20.0703C1.67243 20.0097 1.62195 19.9491 1.56927 19.8907C1.46612 19.776 1.36077 19.6657 1.25322 19.5661C1.03594 19.3649 0.834018 19.1897 0.649656 19.0469C0.465294 18.9041 0.30288 18.7937 0.186557 18.718C0.0702331 18.6444 0 18.6055 0 18.6055C0 18.6055 0 18.9538 0.0899861 19.4536C0.144856 19.7025 0.226063 19.9859 0.340191 20.2802Z" fill="#0053D9"/>
<path d="M9.69159 3.71936C9.72232 3.70205 9.76622 3.67392 9.82548 3.64147C9.9418 3.57656 10.102 3.47703 10.2842 3.34504C10.6529 3.08324 11.1204 2.71325 11.5352 2.20911C11.6362 2.07929 11.7349 1.95813 11.8227 1.82831C11.9105 1.70065 11.9917 1.57083 12.0642 1.44317C12.1015 1.38043 12.1366 1.31551 12.1695 1.25277C12.2046 1.19219 12.2353 1.1316 12.2661 1.07318C12.3275 0.956345 12.3824 0.84167 12.4307 0.73565C12.5273 0.521446 12.5953 0.337533 12.6414 0.205549C12.6633 0.140639 12.6809 0.0887107 12.6919 0.0540919C12.7028 0.0194731 12.7072 0 12.7072 0C12.7072 0 12.6853 0.00432735 12.6458 0.0151457C12.6063 0.0259641 12.5492 0.0432735 12.479 0.067074C12.3363 0.114675 12.1344 0.18824 11.9017 0.29426C11.7854 0.344024 11.6647 0.415426 11.5396 0.486827C11.4145 0.560392 11.285 0.642612 11.1577 0.733486C11.127 0.757287 11.0941 0.781087 11.0611 0.802724C11.0304 0.828688 10.9975 0.854652 10.9668 0.880616C10.9031 0.932544 10.8417 0.9888 10.7824 1.04506C10.6617 1.15973 10.5432 1.28306 10.4334 1.41288C10.2183 1.6855 10.0603 1.96895 9.944 2.23724C9.82767 2.50986 9.75963 2.77167 9.71354 2.99236C9.66965 3.21522 9.64989 3.39913 9.6455 3.53328C9.63892 3.66743 9.6455 3.74316 9.6455 3.74316C9.6455 3.74316 9.66306 3.7345 9.69379 3.7172L9.69159 3.71936Z" fill="#0053D9"/>
<path d="M4.37983 8.12021C4.393 8.17431 4.40836 8.22623 4.42153 8.276C4.43689 8.32576 4.45226 8.37336 4.46762 8.41664C4.49835 8.50535 4.52907 8.57891 4.55321 8.64166C4.60589 8.76499 4.64101 8.83206 4.64101 8.83206C4.64101 8.83206 4.68929 8.77148 4.75952 8.66113C4.82756 8.54862 4.9373 8.395 5.04704 8.19811C5.10191 8.10074 5.15898 7.99256 5.21604 7.87572C5.27749 7.76104 5.33675 7.63988 5.39382 7.50789C5.45088 7.37807 5.50136 7.23527 5.55184 7.09247C5.60452 6.94967 5.6528 6.79821 5.69231 6.64026C5.71206 6.5602 5.72962 6.48231 5.74279 6.40442C5.75815 6.32436 5.77132 6.24863 5.78449 6.17291C5.81083 6.02145 5.82838 5.86999 5.84155 5.72502C5.85472 5.57789 5.86131 5.43726 5.8635 5.30311C5.86789 5.16896 5.87009 5.04563 5.8657 4.92879C5.86131 4.69728 5.84594 4.50038 5.83058 4.36407C5.81522 4.22776 5.80205 4.14771 5.80205 4.14771C5.80205 4.14771 5.73401 4.2018 5.62427 4.30565C5.5694 4.35758 5.50356 4.42033 5.43113 4.49606C5.3587 4.57179 5.27749 4.65401 5.19848 4.7557C5.04046 4.95692 4.86487 5.19276 4.71343 5.46971C4.63881 5.61035 4.57077 5.75748 4.50712 5.91326C4.44567 6.06689 4.38861 6.22483 4.35129 6.39576C4.31398 6.56453 4.28765 6.72897 4.27228 6.88692C4.25692 7.04487 4.25033 7.19849 4.26131 7.34778C4.27667 7.64421 4.32057 7.90817 4.37544 8.12671L4.37983 8.12021Z" fill="#0053D9"/>
<path d="M6.76808 5.80733C6.79003 5.93715 6.80978 6.01071 6.80978 6.01071C6.80978 6.01071 6.87124 5.96311 6.96781 5.87224C7.01609 5.8268 7.07316 5.77055 7.13681 5.70564C7.20045 5.64073 7.26849 5.56067 7.34751 5.48061C7.42432 5.39839 7.50553 5.30752 7.58674 5.20799C7.62844 5.15823 7.66794 5.10413 7.70964 5.05004C7.7294 5.02191 7.75135 4.99379 7.7711 4.96566C7.79305 4.93753 7.8128 4.9094 7.83475 4.88127C7.92034 4.76876 8.00375 4.64543 8.08495 4.51345C8.12446 4.44854 8.16397 4.3793 8.20347 4.31006C8.24078 4.24083 8.28248 4.17159 8.3176 4.10019C8.39222 3.95739 8.45807 3.81026 8.51294 3.66529C8.54147 3.59172 8.56781 3.52032 8.59195 3.44676C8.61829 3.37536 8.64243 3.30612 8.66438 3.23688C8.75436 2.95993 8.81801 2.69596 8.86191 2.46445C8.9058 2.23294 8.93872 2.0447 8.95409 1.90838C8.96945 1.77207 8.97384 1.69202 8.97384 1.69202C8.97384 1.69202 8.89483 1.7288 8.76534 1.80453C8.63365 1.87593 8.45587 1.99709 8.25615 2.15288C8.15519 2.23077 8.04984 2.31948 7.94229 2.41468C7.83694 2.51421 7.73159 2.62456 7.62624 2.74356C7.52309 2.86257 7.41993 2.98806 7.32336 3.12437C7.23118 3.26501 7.14559 3.41214 7.06877 3.56576C6.99414 3.72154 6.9283 3.87084 6.88002 4.02662C6.83173 4.18024 6.79661 4.3317 6.77028 4.47667C6.74394 4.62163 6.72638 4.76011 6.71541 4.88993C6.70443 5.01975 6.70663 5.14741 6.70882 5.26208C6.71541 5.49143 6.73955 5.67751 6.76369 5.80733H6.76808Z" fill="#0053D9"/>
<path d="M149.184 1.63147H134.259C133.35 1.63147 132.613 2.358 132.613 3.25423C132.613 4.15045 133.35 4.87698 134.259 4.87698H149.184C150.093 4.87698 150.83 4.15045 150.83 3.25423C150.83 2.358 150.093 1.63147 149.184 1.63147Z" fill="#0053D9"/>
</g>
<defs>
<clipPath id="clip0_8384_28151">
<rect width="155" height="34" fill="white"/>
</clipPath>
</defs>
</svg>
