<svg width="151" height="160" viewBox="0 0 151 160" fill="none" xmlns="http://www.w3.org/2000/svg">
<path d="M11.5938 112.784C10.9892 112.36 10.3722 111.97 9.80072 111.601C8.6371 110.874 7.49418 110.281 6.48377 109.816C6.22703 109.699 5.98271 109.591 5.75495 109.488C5.5272 109.384 5.30772 109.288 5.10481 109.201C4.69485 109.027 4.33044 108.882 4.02815 108.769C3.42356 108.541 3.06329 108.433 3.06329 108.433C3.06329 108.433 3.14611 108.84 3.3366 109.533C3.51052 110.231 3.88321 111.181 4.36357 112.29C4.60789 112.846 4.88948 113.436 5.20834 114.042C5.55618 114.64 5.9413 115.258 6.36782 115.873C6.79849 116.487 7.254 117.11 7.77991 117.695C8.31824 118.28 8.89798 118.841 9.51914 119.368C9.82971 119.63 10.1444 119.879 10.4591 120.111C10.6165 120.227 10.7739 120.339 10.9312 120.447C11.0969 120.551 11.2584 120.655 11.4199 120.75C12.0741 121.145 12.7243 121.477 13.3579 121.763C13.9873 122.05 14.6043 122.282 15.1923 122.477C15.7845 122.668 16.3642 122.805 16.8901 122.918C17.9461 123.138 18.8323 123.233 19.4534 123.275C20.0746 123.316 20.4349 123.304 20.4349 123.304C20.4349 123.304 20.2816 122.967 19.9752 122.419C19.822 122.145 19.6274 121.813 19.3996 121.444C19.1718 121.07 18.882 120.672 18.6045 120.219C18.0331 119.318 17.2794 118.322 16.4056 117.288C15.9833 116.765 15.5153 116.238 15.0018 115.715C14.4925 115.196 13.9252 114.689 13.362 114.175C12.7864 113.668 12.1901 113.203 11.5855 112.776L11.5938 112.784Z" fill="#0053D9"/>
<path d="M137.485 113.876L134.42 117.089C125.447 126.496 120.283 130.951 114.701 134.101C107.197 138.236 99.4785 140.333 91.7597 140.333C81.4486 140.333 71.2244 135.09 66.3049 127.268C59.0498 115.839 56.2256 103.04 56.2256 81.6066C56.2256 63.2655 59.6295 48.0464 66.0647 37.5972C71.7503 28.3644 79.4567 23.4823 88.3516 23.4823C99.2301 23.4823 108.982 28.8377 118.175 39.8597L118.212 39.9054C122.598 45.0324 127.153 51.1973 130.768 61.4929L131.886 64.6729H145.009V7.93106H131.683L130.466 10.862C129.998 11.9912 128.569 15.4244 127.323 16.7196C127.025 17.031 126.888 17.1722 126.031 17.1722C124.436 17.1722 121.086 15.7939 118.705 14.756L118.627 14.7228C106.464 9.67881 95.9545 7.3291 85.5482 7.3291C75.1418 7.3291 64.8058 9.33009 55.5714 13.274C53.4056 14.1997 51.302 15.2293 49.2604 16.3543C51.157 15.5406 53.7452 14.8515 56.4948 15.0549C57.2112 15.0881 57.9276 15.2376 58.5943 15.3953C59.2651 15.5614 59.8987 15.7607 60.495 15.9848C60.7932 16.0969 61.0789 16.2132 61.3563 16.3419C61.6379 16.4747 61.9071 16.6117 62.1638 16.7529C62.6815 17.031 63.1536 17.3175 63.5759 17.5956C64.4248 18.156 65.0833 18.6874 65.5305 19.0818C65.7541 19.2769 65.928 19.443 66.044 19.5592C66.1599 19.6796 66.222 19.7419 66.222 19.7419C66.222 19.7419 65.9322 19.8581 65.4311 20.0574C64.9259 20.2484 64.2012 20.4892 63.3068 20.6926C62.8554 20.7798 62.3833 20.9251 61.8615 21.0205C61.3439 21.1202 60.789 21.2073 60.201 21.2613C60.0519 21.2738 59.9029 21.2862 59.7538 21.2987C59.6047 21.3111 59.4556 21.3277 59.3065 21.3443C59.0042 21.3693 58.6937 21.39 58.3748 21.4025C57.7371 21.4232 57.0745 21.4066 56.383 21.3443C55.0247 21.2613 53.6996 21.0247 52.449 20.6967C51.215 20.3937 50.0845 20.0449 49.1031 19.6755C48.1258 19.3184 47.3017 18.949 46.7468 18.704C46.3245 18.5131 46.0429 18.3719 45.9269 18.3096C42.0012 20.7715 38.3323 23.6193 34.9532 26.8325C35.0361 26.7661 35.123 26.7039 35.2141 26.6416C35.6448 26.3302 36.1169 26.0064 36.6303 25.6867C36.8871 25.529 37.1521 25.3712 37.4296 25.2135C37.5704 25.1388 37.707 25.0599 37.8478 24.981C37.9969 24.9146 38.146 24.844 38.295 24.7734C38.8996 24.5036 39.5373 24.2545 40.1999 24.0386C40.5312 23.9307 40.8707 23.8311 41.2144 23.748C41.5582 23.6608 41.9226 23.6069 42.287 23.5529C43.0158 23.4533 43.7239 23.4076 44.4072 23.4118C44.7509 23.4118 45.0863 23.4242 45.4134 23.4491C45.7447 23.4782 46.076 23.5239 46.3949 23.5695C47.6703 23.7688 48.8049 24.0926 49.7491 24.4372C50.6932 24.7859 51.4717 25.1886 51.9935 25.475C52.5194 25.7656 52.8093 25.9649 52.8093 25.9649C52.8093 25.9649 52.5567 26.1559 52.097 26.4382C51.6291 26.708 50.9831 27.1231 50.1632 27.5424C49.7532 27.75 49.3019 27.9617 48.8091 28.161C48.3246 28.3727 47.8111 28.5969 47.2562 28.7879C46.7013 28.9871 46.105 29.1573 45.4838 29.3068C44.8751 29.4812 44.2291 29.6223 43.55 29.7219C42.875 29.8299 42.1752 29.8672 41.5209 29.9171C40.8625 29.9627 40.2082 29.9752 39.5705 29.9627C38.9327 29.9503 38.3116 29.9129 37.7194 29.8589C37.1273 29.805 36.5848 29.7635 36.0672 29.697C35.0443 29.5725 34.1747 29.4147 33.566 29.2819C33.1312 29.1906 32.8289 29.1117 32.6922 29.0785C32.4521 29.3276 32.2119 29.5725 31.9758 29.8257C29.0937 32.9144 26.4931 36.2688 24.1825 39.8473C24.199 39.8307 24.2114 39.8141 24.228 39.7933C24.5717 39.3865 24.9568 38.9589 25.3792 38.5313C25.8264 38.1161 26.3109 37.701 26.8327 37.2942C27.3586 36.8915 27.9094 36.4888 28.514 36.1401C29.131 35.7996 29.7811 35.4841 30.4602 35.2184C30.7998 35.0856 31.1394 34.9652 31.4748 34.8614C31.6446 34.8074 31.8102 34.7618 31.9758 34.7161C32.1498 34.6746 32.3195 34.6372 32.4893 34.604C33.1685 34.4629 33.8352 34.3757 34.4729 34.3259C35.1106 34.2761 35.7193 34.2636 36.2949 34.2802C36.8747 34.301 37.4337 34.3632 37.9348 34.4338C38.9452 34.575 39.7692 34.7742 40.3448 34.9361C40.9204 35.0981 41.2434 35.2226 41.2434 35.2226C41.2434 35.2226 41.0447 35.4675 40.6637 35.8536C40.4732 36.0446 40.2372 36.2729 39.9556 36.5261C39.6781 36.7835 39.3427 37.0368 38.999 37.3481C38.3075 37.9542 37.4296 38.5853 36.4274 39.208C35.9388 39.5276 35.4046 39.839 34.8331 40.1296C34.2617 40.4202 33.6364 40.6817 33.0152 40.9474C32.3817 41.2048 31.7357 41.4207 31.0897 41.5992C30.4395 41.7819 29.7894 41.923 29.1807 42.0642C27.9466 42.334 26.754 42.4918 25.7063 42.5872C25.1804 42.6288 24.7042 42.662 24.286 42.6952C23.8636 42.7242 23.4909 42.7367 23.1803 42.745C22.8366 42.7533 22.5716 42.7491 22.406 42.745C20.2816 46.3858 18.4471 50.2383 16.915 54.2652C17.4078 53.4059 18.0123 52.4677 18.7494 51.5336C19.6108 50.5206 20.646 49.5284 21.8345 48.694C23.0768 47.8886 24.3522 47.3157 25.5573 46.9213C26.7996 46.5519 27.9715 46.3567 28.9777 46.2654C29.984 46.1699 30.8164 46.1741 31.4292 46.2156C32.0338 46.253 32.3817 46.3069 32.3817 46.3069C32.3817 46.3069 32.2284 46.5851 31.9303 47.0376C31.6528 47.5067 31.2346 48.1502 30.659 48.8767C30.0627 49.5866 29.4126 50.4418 28.5595 51.2637C28.3483 51.4713 28.1247 51.6747 27.8928 51.8823C27.6568 52.0857 27.4373 52.3016 27.193 52.5092C26.7085 52.9243 26.1784 53.3312 25.6028 53.7131C25.3129 53.9082 25.0148 54.0867 24.7249 54.2652C24.4433 54.4479 24.1535 54.6181 23.8636 54.78C23.2839 55.1038 22.6917 55.3986 22.1078 55.6643C20.9193 56.1873 19.822 56.6191 18.8405 56.9554C17.855 57.2875 17.0019 57.52 16.3932 57.6736C16.0702 57.7524 15.8176 57.8064 15.652 57.8396C14.3103 61.9163 13.2667 66.1549 12.5338 70.5181C12.658 70.0697 12.7988 69.5965 12.9727 69.1066C13.2005 68.5379 13.4614 67.9484 13.7637 67.3547C14.066 66.7611 14.3972 66.1591 14.7865 65.5779C15.2006 65.0008 15.6561 64.4321 16.1572 63.8966C16.6624 63.361 17.1717 62.8753 17.7225 62.4519C18.2815 62.0284 18.8447 61.6589 19.4037 61.3351C20.5259 60.6917 21.5778 60.2225 22.5716 59.9153C23.5489 59.604 24.3812 59.4255 24.9692 59.3217C25.5573 59.2179 25.9051 59.193 25.9051 59.193C25.9051 59.193 25.8264 59.5002 25.6401 60.015C25.549 60.2724 25.4289 60.5796 25.2798 60.9241C25.2011 61.0985 25.1225 61.2812 25.0355 61.4721C24.9568 61.6672 24.8699 61.8707 24.7746 62.0824C24.5841 62.5058 24.3647 62.9542 24.1038 63.4233C23.847 63.8924 23.5365 64.374 23.2383 64.8805C22.9319 65.3828 22.5799 65.8934 22.1865 66.4082C21.9877 66.6614 21.7807 66.9188 21.557 67.172C21.3334 67.4253 21.1264 67.6868 20.8945 67.9401C20.4307 68.4507 19.9421 68.924 19.4327 69.3723C18.9275 69.8207 18.3892 70.2317 17.9005 70.626C16.9025 71.4107 15.8921 72.0749 14.9894 72.6146C14.5422 72.8844 14.1115 73.1252 13.7388 73.3328C13.3703 73.5404 13.039 73.7189 12.7657 73.8559C12.3888 74.051 12.1155 74.1755 11.983 74.2378C11.4985 78.0903 11.2501 82.0259 11.2501 86.032C11.2501 86.3475 11.2583 86.663 11.2583 86.9744C11.2873 86.6049 11.3287 86.223 11.3826 85.8286C11.4654 85.2225 11.5565 84.5956 11.747 83.948C11.925 83.3004 12.1362 82.6444 12.393 81.9885C12.5214 81.6606 12.6621 81.3326 12.8112 81.0088C12.9603 80.685 13.1549 80.3612 13.3413 80.0456C13.7264 79.4105 14.1446 78.8251 14.5836 78.2896C15.0225 77.7541 15.4615 77.2642 15.9543 76.8283C16.9191 75.9523 17.8923 75.2632 18.7577 74.7401C19.1925 74.4786 19.5942 74.2544 19.9669 74.0717C20.3479 73.8891 20.6833 73.7396 20.9649 73.6234C21.5239 73.3909 21.8635 73.2871 21.8635 73.2871C21.8635 73.2871 21.8469 73.6026 21.7641 74.1465C21.6854 74.6861 21.6067 75.4583 21.3914 76.3633C21.292 76.8158 21.1512 77.3057 21.0022 77.8205C20.8696 78.3353 20.704 78.8791 20.5011 79.4354C20.2982 79.9958 20.0497 80.5687 19.7723 81.1582C19.5197 81.7436 19.2174 82.3414 18.8654 82.9392C18.5175 83.537 18.1117 84.1099 17.7225 84.6579C17.3415 85.2059 16.9357 85.7248 16.5257 86.2188C15.7099 87.2027 14.8196 88.0787 14.0991 88.801C13.3578 89.5275 12.687 90.1087 12.2066 90.5073C11.7221 90.9058 11.4281 91.1175 11.4281 91.1175C11.4281 91.1175 11.4157 91.0553 11.3991 90.939C11.6269 95.0406 12.1362 99.0468 12.9396 102.937C12.8816 102.256 12.8651 101.525 12.8775 100.77C12.8858 100.438 12.9023 100.101 12.9272 99.7608C12.9479 99.4204 13.0141 99.0675 13.0721 98.7188C13.1922 98.0172 13.362 97.3115 13.5815 96.6099C13.6933 96.257 13.8092 95.9207 13.9459 95.5886C14.0908 95.2565 14.244 94.9327 14.4055 94.6213C14.7244 93.9986 15.0764 93.4216 15.4366 92.8902C16.1406 91.8274 16.9729 90.939 17.7183 90.2333C18.4637 89.5317 19.1346 89.0086 19.6232 88.6599C20.1118 88.3112 20.41 88.1368 20.41 88.1368C20.41 88.1368 20.6626 89.3739 20.6129 91.2296C20.6336 92.1554 20.5922 93.2348 20.41 94.4179C20.2775 95.5928 20.0249 96.8631 19.5735 98.1916C19.176 99.5076 18.6169 100.761 18.0041 101.911C17.4326 103.049 16.8114 104.087 16.2276 104.967C15.6478 105.847 15.1012 106.569 14.7368 107.059C14.36 107.553 14.1198 107.827 14.1198 107.827C14.1198 107.827 14.1198 107.819 14.1115 107.81C14.7865 110.268 15.5733 112.676 16.4843 115.026C16.9978 116.35 17.5485 117.645 18.1324 118.92C17.9088 118.247 17.7018 117.521 17.5527 116.744C17.4409 116.084 17.3539 115.399 17.3084 114.694C17.2628 113.988 17.2463 113.274 17.3415 112.526C17.4202 111.788 17.5485 111.078 17.7142 110.401C17.8798 109.728 18.0745 109.093 18.3353 108.483C18.8323 107.271 19.4161 106.233 19.9752 105.382C20.116 105.17 20.2526 104.971 20.3851 104.784C20.5259 104.593 20.6626 104.415 20.7951 104.253C21.0601 103.921 21.3003 103.642 21.5032 103.418C21.909 102.966 22.1699 102.729 22.1699 102.729C22.1699 102.729 22.29 103.02 22.4515 103.543C22.5923 104.066 22.8532 104.797 23.0478 105.702C23.1472 106.154 23.2383 106.648 23.3128 107.184C23.4122 107.707 23.495 108.263 23.5489 108.857C23.6069 109.446 23.6193 110.077 23.6276 110.721C23.6441 111.36 23.6276 112.032 23.5613 112.726C23.5282 113.074 23.4868 113.419 23.4329 113.759C23.3791 114.104 23.3211 114.44 23.2673 114.768C23.1555 115.428 23.0064 116.076 22.8408 116.699C22.6751 117.326 22.4929 117.927 22.2983 118.5C22.1119 119.069 21.938 119.596 21.7517 120.086C21.3873 121.066 21.027 121.884 20.7578 122.457C20.5425 122.918 20.3851 123.212 20.3313 123.312C23.3708 128.891 27.1267 133.96 31.5617 138.44C38.2081 145.157 46.1919 150.375 55.2898 153.958C64.6609 157.644 75.0507 159.512 86.161 159.512C99.404 159.512 109.45 157.516 118.734 153.04C128.756 148.208 137.92 140.383 147.576 128.414L150.521 124.765L137.505 113.892L137.485 113.876Z" fill="#0053D9"/>
<path d="M59.0456 11.8791C59.0456 11.8791 59.4059 11.8957 60.0312 11.8749C60.3418 11.8666 60.7186 11.8417 61.1493 11.8085C61.58 11.7794 62.0644 11.7587 62.5945 11.7047C63.6505 11.6092 64.8762 11.3809 66.1889 11.1318C66.8473 10.9948 67.5264 10.8205 68.2221 10.6004C68.3961 10.5423 68.57 10.4883 68.748 10.4302C68.922 10.3763 69.1 10.3223 69.274 10.2642C69.6259 10.1479 69.9821 10.0234 70.3423 9.88224C71.0587 9.59994 71.7461 9.28443 72.4087 8.93986C73.0671 8.59944 73.6924 8.27978 74.2887 7.92276C75.4772 7.22532 76.5456 6.46145 77.4276 5.79722C78.3138 5.14545 79.0219 4.54764 79.5105 4.11589C79.9992 3.67999 80.2642 3.41015 80.2642 3.41015C80.2642 3.41015 79.8708 3.29391 79.1793 3.14446C78.8314 3.06973 78.4132 2.9867 77.9287 2.90367C77.4442 2.8248 76.8934 2.78743 76.293 2.74177C75.6967 2.70441 75.0465 2.6795 74.3633 2.68365C74.0196 2.6878 73.6717 2.68365 73.3156 2.71686C72.9553 2.74592 72.5909 2.78743 72.2224 2.8331C70.744 3.02822 69.187 3.33542 67.6755 3.99135C66.9219 4.30271 66.2179 4.65558 65.5636 5.03336C65.2365 5.21602 64.9259 5.41944 64.6236 5.63532C64.3213 5.84704 64.0356 6.06292 63.7623 6.27879C62.6608 7.15474 61.7704 8.0473 61.0706 8.87344C60.3708 9.72033 59.8697 10.4717 59.5343 11.0114C59.203 11.5511 59.0415 11.8791 59.0415 11.8791H59.0456Z" fill="#0053D9"/>
<path d="M5.57689 63.3444C5.62244 63.743 5.7094 64.1498 5.79636 64.5525C5.97443 65.3579 6.20218 66.1217 6.45892 66.8358C6.72395 67.554 6.99726 68.2182 7.34096 68.8409C8.00766 70.0864 8.74062 71.1284 9.41561 71.9628C9.75517 72.3821 10.074 72.7433 10.3805 73.0588C10.691 73.3743 10.9726 73.6358 11.2045 73.8476C11.6766 74.271 11.9665 74.4869 11.9665 74.4869C11.9665 74.4869 12.041 74.1257 12.1197 73.4988C12.2025 72.872 12.3516 71.9836 12.4137 70.9084C12.451 70.3728 12.4634 69.7875 12.4717 69.1689C12.4965 68.5545 12.5048 67.9027 12.4758 67.2219C12.451 66.541 12.3889 65.8312 12.3019 65.1005C12.2356 64.374 12.1321 63.6267 11.9789 62.867C11.8298 62.1073 11.6228 61.3601 11.4157 60.6502C11.2211 59.9403 10.9933 59.2553 10.7532 58.6035C10.2769 57.3 9.6972 56.1002 9.22926 55.1163C8.74477 54.1241 8.28511 53.3146 7.94555 52.7541C7.60599 52.1937 7.38651 51.8823 7.38651 51.8823C7.38651 51.8823 7.20845 52.256 6.94342 52.9285C6.81505 53.2648 6.66183 53.6674 6.50448 54.1407C6.4258 54.3773 6.33884 54.6264 6.26844 54.8963C6.19804 55.1661 6.12764 55.4484 6.05725 55.7432C5.92059 56.3368 5.78808 56.9803 5.68041 57.6611C5.57275 58.3461 5.46094 59.0643 5.44438 59.824C5.41539 60.5796 5.41953 61.3642 5.46508 62.153C5.48993 62.5474 5.52305 62.9459 5.56861 63.3486L5.57689 63.3444Z" fill="#0053D9"/>
<path d="M11.834 49.2918C11.9416 50.0557 12.0907 50.778 12.2646 51.4547C12.6 52.8039 13.1177 53.9954 13.6063 54.9668C14.0991 55.9383 14.5795 56.6938 14.9356 57.2086C15.2917 57.7234 15.5277 57.9974 15.5277 57.9974C15.5277 57.9974 16.1737 56.6814 16.7328 54.6015C17.0599 53.5803 17.3788 52.3722 17.6024 51.0147C17.8674 49.6821 18.0538 48.2166 18.0662 46.6474C18.1283 45.1072 18.0124 43.6044 17.8053 42.2095C17.6355 40.8354 17.3788 39.565 17.1096 38.4773C16.8404 37.3897 16.5506 36.4846 16.356 35.8702C16.153 35.2517 16.0122 34.903 16.0122 34.903C16.0122 34.903 15.7472 35.2226 15.3373 35.8121C14.9521 36.4141 14.4221 37.29 13.8755 38.3694C13.304 39.4363 12.8154 40.7731 12.3889 42.2178C12.2853 42.579 12.1859 42.9484 12.0948 43.3262C12.0037 43.6998 11.9458 44.0984 11.8878 44.4928C11.776 45.2857 11.7014 46.0952 11.6849 46.9172C11.6766 47.3282 11.6766 47.7267 11.7014 48.1253C11.7346 48.5238 11.776 48.914 11.8298 49.296L11.834 49.2918Z" fill="#0053D9"/>
<path d="M1.70503 78.3353C1.83754 79.0784 1.99904 79.834 2.22266 80.5937C2.46698 81.3534 2.76099 82.1131 3.10469 82.8604C3.45254 83.6035 3.82109 84.2926 4.24347 84.9319C4.67414 85.5671 5.12965 86.1483 5.58516 86.6797C6.50861 87.7383 7.40721 88.5852 8.29753 89.2411C9.16714 89.8929 9.93323 90.3579 10.4798 90.6609C11.0265 90.964 11.3577 91.1051 11.3577 91.1051C11.3577 91.1051 11.3577 90.7356 11.3039 90.1088C11.2749 89.7933 11.2376 89.4113 11.1797 88.9796C11.1465 88.7637 11.1176 88.5312 11.0803 88.2904C11.0513 88.0455 11.0182 87.7923 10.9809 87.5266C10.9022 86.9952 10.8028 86.4223 10.6703 85.8203C10.542 85.2184 10.3639 84.5832 10.2107 83.9231C10.0409 83.2672 9.83798 82.5864 9.58952 81.8972C9.46529 81.5527 9.32864 81.2039 9.1837 80.8511C9.03463 80.5024 8.90625 80.1495 8.7489 79.7966C8.43832 79.0909 8.09048 78.4142 7.72192 77.7707C7.35752 77.1231 6.94755 76.5087 6.58729 75.9316C5.83776 74.7734 5.05097 73.748 4.33043 72.8969C3.97431 72.4693 3.62646 72.0874 3.32417 71.7511C3.02601 71.4149 2.76099 71.1326 2.53323 70.9001C2.08186 70.4351 1.80027 70.186 1.80027 70.186C1.80027 70.186 1.70503 70.5887 1.58908 71.2986C1.47727 72.0085 1.40688 73.0256 1.38203 74.2378C1.37789 74.8439 1.37789 75.4957 1.4193 76.1849C1.48556 76.8781 1.57666 77.6005 1.70917 78.3436L1.70503 78.3353Z" fill="#0053D9"/>
<path d="M2.09843 97.5606C2.68231 98.9513 3.4484 100.375 4.40912 101.687C5.42781 102.987 6.5376 104.045 7.62669 104.888C8.76132 105.722 9.87112 106.341 10.8401 106.798C11.8133 107.254 12.6373 107.549 13.2502 107.723C13.8548 107.898 14.2109 107.964 14.2109 107.964C14.2109 107.964 14.1239 107.607 13.9293 107.009C13.7637 106.399 13.4945 105.544 13.097 104.547C12.6746 103.555 12.2356 102.397 11.5938 101.193C11.4364 100.894 11.2666 100.587 11.0886 100.284C10.9064 99.9767 10.7449 99.6654 10.5544 99.354C10.1858 98.7271 9.76759 98.1003 9.29966 97.4817C9.06776 97.1703 8.8193 96.8714 8.58326 96.5767C8.35136 96.2819 8.11533 95.9955 7.87515 95.7215C7.39065 95.1694 6.89373 94.6463 6.39266 94.1647C5.37397 93.1974 4.42154 92.3588 3.55193 91.6738C2.68646 90.9889 1.92037 90.4575 1.37375 90.1005C0.831281 89.7351 0.5 89.5483 0.5 89.5483C0.5 89.5483 0.5 91.2172 0.922384 93.6084C1.18327 94.7957 1.56424 96.1574 2.09843 97.5606Z" fill="#0053D9"/>
<path d="M46.1174 18.3014C46.2665 18.2183 46.4694 18.0813 46.7468 17.9277C47.2893 17.6164 48.0471 17.1431 48.9084 16.5121C50.6435 15.2625 52.8465 13.4898 54.7928 11.0737C55.269 10.4468 55.7328 9.86979 56.1469 9.25123C56.5652 8.64097 56.942 8.0224 57.2857 7.40799C57.4596 7.10493 57.6211 6.79358 57.7826 6.49882C57.9441 6.20822 58.0932 5.92178 58.2381 5.63948C58.528 5.07488 58.7806 4.53104 59.0084 4.02042C59.4597 2.99916 59.7869 2.11491 59.9981 1.48804C60.1016 1.17668 60.1844 0.927597 60.2383 0.761539C60.288 0.595482 60.3169 0.50415 60.3169 0.50415C60.3169 0.50415 60.2176 0.529059 60.0312 0.570573C59.8449 0.616239 59.5798 0.703419 59.2444 0.81966C58.5736 1.04799 57.6253 1.40501 56.5321 1.90318C55.9813 2.13982 55.4181 2.48023 54.826 2.8248C54.2379 3.18183 53.6292 3.57621 53.0246 4.00796C52.8755 4.12005 52.7223 4.23214 52.5732 4.34423C52.4242 4.46462 52.2792 4.58916 52.1302 4.71371C51.8361 4.96694 51.5463 5.22849 51.2564 5.50248C50.6849 6.05047 50.13 6.63582 49.6166 7.26684C48.6103 8.57039 47.8608 9.93206 47.31 11.2066C46.7675 12.506 46.4404 13.7638 46.2292 14.8266C46.0222 15.8977 45.9269 16.7736 45.9062 17.4171C45.8814 18.0564 45.8979 18.4259 45.8979 18.4259C45.8979 18.4259 45.9766 18.3802 46.1257 18.3014H46.1174Z" fill="#0053D9"/>
<path d="M21.1181 39.3616C21.1803 39.6231 21.2465 39.8722 21.3169 40.1089C21.3873 40.3455 21.4618 40.5738 21.5322 40.7814C21.6772 41.2007 21.818 41.5619 21.9381 41.8525C22.1824 42.4378 22.3522 42.7616 22.3522 42.7616C22.3522 42.7616 22.5758 42.471 22.9153 41.9396C23.2383 41.3958 23.756 40.6652 24.2736 39.7228C24.5345 39.2537 24.8036 38.7389 25.0645 38.1784C25.3503 37.6346 25.6319 37.0493 25.8969 36.4224C26.166 35.7955 26.4062 35.123 26.6464 34.4297C26.8949 33.7447 27.1185 33.0224 27.3048 32.2668C27.3959 31.889 27.4787 31.5112 27.5491 31.1335C27.6154 30.7557 27.6817 30.3862 27.7479 30.0209C27.8721 29.2944 27.9591 28.5762 28.0171 27.8787C28.075 27.1771 28.104 26.5005 28.1165 25.857C28.133 25.2177 28.1413 24.624 28.133 24.0677C28.1123 22.9551 28.0419 22.0211 27.9715 21.3651C27.9011 20.7092 27.8349 20.3314 27.8349 20.3314C27.8349 20.3314 27.516 20.593 26.9984 21.087C26.7416 21.3319 26.4311 21.6391 26.0915 21.9961C25.7561 22.3573 25.3627 22.7517 24.9983 23.2374C24.257 24.1964 23.4288 25.3339 22.7124 26.6582C22.3646 27.3307 22.0374 28.0365 21.7434 28.7754C21.4494 29.5144 21.1803 30.27 21.0105 31.0878C20.8283 31.8932 20.7082 32.6819 20.6378 33.4417C20.5674 34.2014 20.5384 34.9279 20.5798 35.6419C20.6502 37.0576 20.8614 38.3196 21.1181 39.3658V39.3616Z" fill="#0053D9"/>
<path d="M32.3527 28.298C32.4604 28.9207 32.5515 29.2695 32.5515 29.2695C32.5515 29.2695 32.8372 29.0411 33.2927 28.6052C33.5205 28.3893 33.7896 28.1195 34.0919 27.804C34.3942 27.4885 34.7131 27.1149 35.0816 26.7288C35.446 26.3344 35.8229 25.8985 36.208 25.4211C36.4026 25.1803 36.5972 24.927 36.7877 24.6655C36.883 24.5327 36.9782 24.3998 37.0776 24.267C37.177 24.1341 37.2805 24.0013 37.3799 23.8643C37.7816 23.3204 38.1791 22.7351 38.556 22.1082C38.7464 21.7969 38.9286 21.4689 39.1108 21.1326C39.2889 20.7964 39.4794 20.4726 39.6533 20.1238C40.0053 19.4347 40.3076 18.7373 40.5768 18.0398C40.7093 17.6911 40.8335 17.3424 40.9495 16.9978C41.0695 16.6574 41.1855 16.3253 41.2932 15.9973C41.7197 14.673 42.0178 13.4027 42.229 12.2984C42.4402 11.1941 42.5893 10.2891 42.6597 9.63316C42.7342 8.98139 42.7549 8.60361 42.7549 8.60361C42.7549 8.60361 42.3823 8.78212 41.7694 9.13914C41.1441 9.48371 40.3117 10.0608 39.3676 10.808C38.8955 11.1816 38.3945 11.6009 37.8892 12.0659C37.3882 12.5392 36.8954 13.0747 36.4026 13.6434C35.914 14.2122 35.4295 14.8142 34.9823 15.4701C34.5474 16.1385 34.1458 16.8484 33.7855 17.5832C33.4294 18.3263 33.1188 19.0403 32.8993 19.7834C32.6757 20.5224 32.5059 21.2406 32.3817 21.9339C32.2533 22.6272 32.1746 23.2872 32.125 23.9099C32.0753 24.5327 32.0835 25.1429 32.096 25.6868C32.1291 26.7827 32.245 27.6753 32.3486 28.298H32.3527Z" fill="#0053D9"/>
</svg>
